PathFileType	4	(X/Y/Z)	C:/Users/opensim2020/Desktop/walking_exp_matlab/subject06_cal10_run.trc																																																																																																																																																	
DataRate	CameraRate	NumFrames	NumMarkers	Units	OrigDataRate	OrigDataStartFrame	OrigNumFrames																																																																																																																																													
100	100	5	49	mm	100	272	118																																																																																																																																													
Frame#	Time	LKNE			RTIB			RFRM			RWRA			LTHI			RKNE			RELB			RFHD			LWRA			RUPA			STRN			RASI			CLAV			RSHO			LASI			RTHI			RBHD			LBHD			C7			RWRB			RFIN			RTOE			LSHO			RBAK			LTIB			RANK			LFIN			LANK			RHEE			T10			LHEE			LTOE			LFHD			LPSI			RPSI			LUPA			LELB			LFRM			LWRB			*39			*40			*41			*42			*43			*44			*45			*46			*47			*48		
		X1	Y1	Z1	X2	Y2	Z2	X3	Y3	Z3	X4	Y4	Z4	X5	Y5	Z5	X6	Y6	Z6	X7	Y7	Z7	X8	Y8	Z8	X9	Y9	Z9	X10	Y10	Z10	X11	Y11	Z11	X12	Y12	Z12	X13	Y13	Z13	X14	Y14	Z14	X15	Y15	Z15	X16	Y16	Z16	X17	Y17	Z17	X18	Y18	Z18	X19	Y19	Z19	X20	Y20	Z20	X21	Y21	Z21	X22	Y22	Z22	X23	Y23	Z23	X24	Y24	Z24	X25	Y25	Z25	X26	Y26	Z26	X27	Y27	Z27	X28	Y28	Z28	X29	Y29	Z29	X30	Y30	Z30	X31	Y31	Z31	X32	Y32	Z32	X33	Y33	Z33	X34	Y34	Z34	X35	Y35	Z35	X36	Y36	Z36	X37	Y37	Z37	X38	Y38	Z38	X39	Y39	Z39	X40	Y40	Z40	X41	Y41	Z41	X42	Y42	Z42	X43	Y43	Z43	X44	Y44	Z44	X45	Y45	Z45	X46	Y46	Z46	X47	Y47	Z47	X48	Y48	Z48	X49	Y49	Z49
																																																																																																																																																				
104	1.03	1924.74854	431.95251	157.0616	1952.13013	249.11026	403.33624	1785.08142	1060.84827	546.76624	1909.0061	1081.81482	479.16864	1912.88562	592.46765	132.6088	2011.45618	503.56772	408.18927	1696.60156	1115.64746	565.91669	1929.23438	1621.28308	372.72552	1987.58728	1133.43213	159.71785	1725.79468	1216.63916	539.12036	1962.56824	1161.86316	296.13239	1921.49365	930.70813	407.87354	1920.87305	1339.37512	302.07867	1841.23608	1368.3562	451.5925	1946.73523	915.31189	192.70363	1958.64478	616.78003	448.80948	1799.28064	1566.99463	364.89288	1803.9823	1570.47839	235.79037	1807.45813	1412.75085	287.62103	1906.32971	1020.37726	505.40524	1985.85815	1043.82422	495.41409	2022.83569	32.93606	315.68246	1877.74048	1382.67078	136.42249	1726.39063	1240.27136	339.10367	1703.1532	340.50912	149.96562	1878.91956	77.72555	352.64279	2068.39307	1104.50513	199.11855	1545.76331	275.79526	172.30939	1824.49182	63.15968	318.47592	1774.01526	1084.71326	271.33389	1511.67236	294.89392	222.39732	1589.09302	142.94604	150.11404	1935.37549	1630.91992	240.33313	1790.54993	947.63202	194.37137	1772.3147	956.30981	365.31647	1847.3905	1210.78162	30.0082	1823.37451	1114.61255	-4.53114	1927.76672	1073.77502	64.05173	2002.23145	1063.96472	153.76418	NaN	NaN	NaN	NaN	NaN	NaN	1830.61377	1665.81372	294.81339	NaN	NaN	NaN	NaN	NaN	NaN	NaN	NaN	NaN	NaN	NaN	NaN	NaN	NaN	NaN	NaN	NaN	NaN	NaN	NaN	NaN
105	1.04	1985.95117	431.47256	156.5923	1962.48523	242.5148	400.86896	1837.78711	1049.37622	547.67822	1958.86707	1072.29016	476.56851	1965.26123	591.41168	131.63257	2037.28674	494.09027	406.79587	1749.18616	1101.93298	570.43732	1966.1416	1617.31311	373.34381	2021.12317	1118.37488	155.63583	1773.72363	1204.35986	544.23328	2000.08691	1155.78223	295.51749	1956.59021	921.724	408.85367	1959.48157	1334.20789	302.19092	1882.35364	1362.14673	454.05316	1982.37024	908.85211	193.05354	1990.32141	610.07269	447.52072	1836.90356	1561.10522	366.69409	1840.26331	1564.58691	237.20792	1846.49585	1409.10327	289.23596	1957.44971	1010.64844	502.16306	2035.86865	1034.93628	488.97531	2022.1499	32.78696	315.10223	1915.27869	1376.15381	136.18283	1763.92859	1236.50879	342.54202	1767.45117	336.97757	149.11639	1879.10071	76.05338	349.94052	2103.16357	1085.75183	190.43982	1610.9093	269.22211	171.64998	1823.95276	63.93008	315.20471	1811.24072	1080.18604	273.49173	1575.70117	287.07278	221.46944	1659.37903	138.53035	149.12781	1970.81702	1626.95068	240.80943	1825.1593	940.92151	193.66623	1808.25623	950.89777	364.8183	1876.37158	1204.75525	31.32299	1849.92004	1108.59583	-3.56731	1956.047	1063.93787	60.47678	2033.77039	1048.95496	146.37225	NaN	NaN	NaN	NaN	NaN	NaN	1866.05457	1660.21631	296.31448	NaN	NaN	NaN	NaN	NaN	NaN	NaN	NaN	NaN	NaN	NaN	NaN	NaN	NaN	NaN	NaN	NaN	NaN	NaN	NaN	NaN
106	1.05	2046.60535	435.5127	155.93446	1969.37659	236.32884	398.14688	1891.10718	1041.06982	547.69043	2008.44006	1066.68469	472.20798	2016.27698	593.58105	129.75531	2059.40918	485.17987	406.56696	1802.7373	1091.87439	573.61823	2003.1571	1614.24756	373.88547	2053.83447	1105.65967	150.82234	1821.20618	1196.54077	547.01434	2037.79675	1151.84167	294.76846	1992.24548	915.34692	408.66812	1996.69556	1330.37878	301.83734	1923.82605	1358.03528	455.97638	2018.36133	904.09692	191.96266	2018.5575	603.4494	446.34265	1874.55957	1556.31799	368.3013	1876.42212	1560.08765	238.58446	1885.55286	1407.06128	290.44473	2008.5271	1003.60742	496.9751	2086.15625	1030.42065	483.00052	2021.60205	32.64217	314.58969	1952.59399	1371.71008	136.37857	1801.37097	1234.34692	346.81281	1831.86914	334.77762	149.04527	1878.75684	75.95653	347.23355	2136.22241	1069.16223	180.76443	1677.1615	261.82635	172.0267	1823.95581	66.25975	312.23969	1847.68896	1078.95947	275.8757	1640.99841	277.89941	221.89696	1731.29285	133.81273	148.56113	2006.23914	1623.91931	241.31697	1860.42419	937.48737	193.85991	1845.28357	949.24634	364.15341	1905.37036	1202.23511	33.31829	1875.49744	1106.20361	-2.39181	1983.09546	1056.52856	56.69305	2063.59229	1036.38428	138.71034	NaN	NaN	NaN	NaN	NaN	NaN	1901.82422	1655.84326	297.81485	NaN	NaN	NaN	NaN	NaN	NaN	NaN	NaN	NaN	NaN	NaN	NaN	NaN	NaN	NaN	NaN	NaN	NaN	NaN	NaN	NaN
107	1.06	2105.90552	443.07419	155.17325	1976.67883	231.64421	396.28711	1944.46204	1036.8103	546.87781	2057.21631	1065.43262	467.75043	2065.30029	598.27045	127.53869	2079.6853	476.67181	406.73083	1855.80591	1086.39258	576.01288	2040.39099	1612.47485	374.37402	2085.38281	1096.04639	145.73434	1868.87427	1191.7511	549.95496	2076.06567	1149.94104	293.78024	2029.80798	912.47687	408.04919	2034.85278	1328.61951	301.69705	1965.5575	1356.11011	457.09586	2053.71533	901.68903	190.09515	2043.74963	596.79468	445.5993	1912.37329	1552.97522	369.60782	1913.42383	1556.83191	240.4456	1923.40332	1405.6582	291.59647	2059.66504	1002.33496	492.707	2135.61426	1030.0155	474.61151	2021.08521	32.44826	314.36072	1988.34448	1369.52527	137.28102	1839.83264	1233.29883	351.40747	1896.23022	333.53891	149.46436	1879.12292	77.33395	345.40219	2167.65234	1055.86548	170.32924	1744.4978	253.58112	173.28462	1824.47083	69.88351	309.93842	1884.12891	1078.02539	278.10992	1707.59924	267.58441	223.35844	1805.68201	129.53703	148.55334	2041.94421	1622.26355	241.57227	1896.41333	937.31097	194.67456	1882.9519	949.53851	363.93167	1934.14954	1202.06982	34.8598	1900.25	1107.99414	-0.35798	2009.30078	1051.14917	52.84295	2091.78979	1026.81421	131.12621	NaN	NaN	NaN	NaN	NaN	NaN	1937.85254	1652.8689	299.11609	NaN	NaN	NaN	NaN	NaN	NaN	NaN	NaN	NaN	NaN	NaN	NaN	NaN	NaN	NaN	NaN	NaN	NaN	NaN	NaN	NaN
108	1.07	2163.64868	453.31213	154.48834	1983.88635	229.81395	395.26666	1996.42712	1036.64087	545.539	2104.44116	1067.95569	462.05835	2112.27124	604.73566	125.47029	2098.21094	469.1582	406.73825	1907.28748	1084.30127	578.02539	2077.83374	1612.46082	374.75861	2116.03516	1089.7113	139.98006	1916.69336	1189.51208	553.16864	2114.24512	1149.9823	292.27231	2067.9668	911.48883	407.03568	2073.21362	1328.59888	301.0723	2007.46936	1356.28711	457.91611	2088.91333	902.20764	187.9187	2066.677	590.62512	444.79037	1950.28748	1551.60999	370.80133	1950.32678	1555.82312	241.70642	1960.79041	1404.52307	293.14804	2109.83472	1005.62622	487.90717	2184.02344	1035.86768	467.03204	2020.39404	32.20117	314.15198	2022.44312	1369.61121	138.09219	1879.19568	1233.68835	355.53561	1960.15515	333.19553	150.21761	1879.8468	80.00254	344.44931	2197.51831	1046.13123	159.92163	1812.76367	244.71893	175.28004	1825.3374	74.61674	308.34509	1922.42029	1077.35376	280.67441	1775.4812	256.44931	225.67932	1880.98047	124.36884	149.99916	2077.81714	1622.4519	241.8756	1932.73218	939.14038	195.87326	1923.22424	949.98267	365.28964	1962.46179	1204.17639	36.10842	1925.62463	1112.06201	1.38929	2034.7489	1048.38	48.99511	2118.97583	1020.51056	123.80072	NaN	NaN	NaN	NaN	NaN	NaN	1974.10559	1651.80164	300.25479	NaN	NaN	NaN	NaN	NaN	NaN	NaN	NaN	NaN	NaN	NaN	NaN	NaN	NaN	NaN	NaN	NaN	NaN	NaN	NaN	NaN
